<?xml version="1.0" encoding="UTF-8"?>
<svg width="256px" height="33px" viewBox="0 0 256 33" version="1.1" xmlns="http://www.w3.org/2000/svg" xmlns:xlink="http://www.w3.org/1999/xlink">
    <!-- Generator: Sketch 62 (91390) - https://sketch.com -->
    <title>OCR-Dbutler</title>
    <desc>Created with Sketch.</desc>
    <g id="Page-1" stroke="none" stroke-width="1" fill="none" fill-rule="evenodd">
        <g id="Desktop" transform="translate(-512.000000, -1385.000000)" fill="#B3871A" fill-rule="nonzero">
            <path d="M524.76,1417.56 C526.946667,1417.56 528.8,1417.27333 530.32,1416.7 C531.84,1416.12667 533.073333,1415.21333 534.02,1413.96 C534.966667,1412.70667 535.653333,1411.1 536.08,1409.14 C536.506667,1407.18 536.72,1404.8 536.72,1402 C536.72,1399.22667 536.506667,1396.86 536.08,1394.9 C535.653333,1392.94 534.966667,1391.34 534.02,1390.1 C533.073333,1388.86 531.84,1387.95333 530.32,1387.38 C528.8,1386.80667 526.946667,1386.52 524.76,1386.52 C522.6,1386.52 520.76,1386.80667 519.24,1387.38 C517.72,1387.95333 516.48,1388.86 515.52,1390.1 C514.56,1391.34 513.866667,1392.94 513.44,1394.9 C513.013333,1396.86 512.8,1399.22667 512.8,1402 C512.8,1404.77333 513.02,1407.14667 513.46,1409.12 C513.9,1411.09333 514.593333,1412.70667 515.54,1413.96 C516.486667,1415.21333 517.72,1416.12667 519.24,1416.7 C520.76,1417.27333 522.6,1417.56 524.76,1417.56 Z M524.8,1415 C523.146667,1415 521.733333,1414.79333 520.56,1414.38 C519.386667,1413.96667 518.426667,1413.26667 517.68,1412.28 C516.933333,1411.29333 516.386667,1409.96667 516.04,1408.3 C515.693333,1406.63333 515.52,1404.53333 515.52,1402 C515.52,1399.46667 515.693333,1397.36667 516.04,1395.7 C516.386667,1394.03333 516.926667,1392.70667 517.66,1391.72 C518.393333,1390.73333 519.346667,1390.04 520.52,1389.64 C521.693333,1389.24 523.106667,1389.04 524.76,1389.04 C526.413333,1389.04 527.826667,1389.24 529,1389.64 C530.173333,1390.04 531.126667,1390.73333 531.86,1391.72 C532.593333,1392.70667 533.133333,1394.03333 533.48,1395.7 C533.826667,1397.36667 534,1399.46667 534,1402 C534,1404.53333 533.833333,1406.63333 533.5,1408.3 C533.166667,1409.96667 532.626667,1411.29333 531.88,1412.28 C531.133333,1413.26667 530.18,1413.96667 529.02,1414.38 C527.86,1414.79333 526.453333,1415 524.8,1415 Z M554.84,1417.56 C556.2,1417.56 557.52,1417.38 558.8,1417.02 C560.08,1416.66 561.173333,1416.24 562.08,1415.76 L562.08,1415.76 L561.64,1413.48 C560.733333,1413.96 559.746667,1414.34 558.68,1414.62 C557.613333,1414.9 556.44,1415.04 555.16,1415.04 C553.426667,1415.04 551.926667,1414.82 550.66,1414.38 C549.393333,1413.94 548.34,1413.2 547.5,1412.16 C546.66,1411.12 546.033333,1409.74667 545.62,1408.04 C545.206667,1406.33333 545,1404.21333 545,1401.68 C545,1399.30667 545.2,1397.31333 545.6,1395.7 C546,1394.08667 546.613333,1392.78667 547.44,1391.8 C548.266667,1390.81333 549.313333,1390.10667 550.58,1389.68 C551.846667,1389.25333 553.333333,1389.04 555.04,1389.04 C556.293333,1389.04 557.486667,1389.17333 558.62,1389.44 C559.753333,1389.70667 560.733333,1390.02667 561.56,1390.4 L561.56,1390.4 L561.92,1387.96 C561.52,1387.77333 561.053333,1387.59333 560.52,1387.42 C559.986667,1387.24667 559.406667,1387.09333 558.78,1386.96 C558.153333,1386.82667 557.513333,1386.72 556.86,1386.64 C556.206667,1386.56 555.56,1386.52 554.92,1386.52 C552.733333,1386.52 550.846667,1386.81333 549.26,1387.4 C547.673333,1387.98667 546.36,1388.9 545.32,1390.14 C544.28,1391.38 543.513333,1392.95333 543.02,1394.86 C542.526667,1396.76667 542.28,1399.04 542.28,1401.68 C542.28,1404.45333 542.526667,1406.83333 543.02,1408.82 C543.513333,1410.80667 544.273333,1412.45333 545.3,1413.76 C546.326667,1415.06667 547.626667,1416.02667 549.2,1416.64 C550.773333,1417.25333 552.653333,1417.56 554.84,1417.56 Z M571,1417 L571,1403.52 L577.96,1403.52 L585.64,1417 L588.84,1417 L580.48,1403.04 C582.56,1402.8 584.146667,1402.03333 585.24,1400.74 C586.333333,1399.44667 586.88,1397.57333 586.88,1395.12 C586.88,1392.37333 586.173333,1390.33333 584.76,1389 C583.346667,1387.66667 581.12,1387 578.08,1387 L578.08,1387 L568.36,1387 L568.36,1417 L571,1417 Z M577.84,1401.36 L571,1401.36 L571,1389.36 L578.08,1389.36 C580.186667,1389.36 581.726667,1389.81333 582.7,1390.72 C583.673333,1391.62667 584.16,1393.13333 584.16,1395.24 C584.16,1397.42667 583.653333,1398.99333 582.64,1399.94 C581.626667,1400.88667 580.026667,1401.36 577.84,1401.36 L577.84,1401.36 Z M603.32,1404.36 L603.32,1402.44 L593.2,1402.44 L593.2,1404.36 L603.32,1404.36 Z M620.84,1417 C622.973333,1417 624.826667,1416.72667 626.4,1416.18 C627.973333,1415.63333 629.28,1414.76 630.32,1413.56 C631.36,1412.36 632.133333,1410.8 632.64,1408.88 C633.146667,1406.96 633.4,1404.62667 633.4,1401.88 C633.4,1399.21333 633.16,1396.94 632.68,1395.06 C632.2,1393.18 631.446667,1391.64 630.42,1390.44 C629.393333,1389.24 628.086667,1388.36667 626.5,1387.82 C624.913333,1387.27333 623.013333,1387 620.8,1387 L620.8,1387 L611,1387 L611,1417 L620.84,1417 Z M620.76,1414.48 L613.64,1414.48 L613.64,1389.56 L620.72,1389.56 C622.453333,1389.56 623.946667,1389.76 625.2,1390.16 C626.453333,1390.56 627.48,1391.23333 628.28,1392.18 C629.08,1393.12667 629.673333,1394.38667 630.06,1395.96 C630.446667,1397.53333 630.64,1399.50667 630.64,1401.88 C630.64,1404.36 630.433333,1406.41333 630.02,1408.04 C629.606667,1409.66667 628.993333,1410.95333 628.18,1411.9 C627.366667,1412.84667 626.34,1413.51333 625.1,1413.9 C623.86,1414.28667 622.413333,1414.48 620.76,1414.48 L620.76,1414.48 Z M662.92,1417.48 C664.44,1417.48 665.8,1417.24667 667,1416.78 C668.2,1416.31333 669.213333,1415.57333 670.04,1414.56 C670.866667,1413.54667 671.5,1412.24667 671.94,1410.66 C672.38,1409.07333 672.6,1407.16 672.6,1404.92 C672.6,1402.68 672.386667,1400.77333 671.96,1399.2 C671.533333,1397.62667 670.926667,1396.34667 670.14,1395.36 C669.353333,1394.37333 668.4,1393.65333 667.28,1393.2 C666.16,1392.74667 664.906667,1392.52 663.52,1392.52 C662.32,1392.52 661.173333,1392.71333 660.08,1393.1 C658.986667,1393.48667 658.013333,1394.09333 657.16,1394.92 L657.16,1394.92 L657.04,1394.84 L657.12,1391.64 L657.12,1385.4 L652.04,1385.68 L652.04,1417 L655.48,1417 L656.2,1414.8 C656.973333,1415.6 657.926667,1416.24667 659.06,1416.74 C660.193333,1417.23333 661.48,1417.48 662.92,1417.48 Z M662.12,1413.28 C660.866667,1413.28 659.826667,1413.04 659,1412.56 C658.173333,1412.08 657.546667,1411.50667 657.12,1410.84 L657.12,1410.84 L657.12,1399.44 C657.653333,1398.69333 658.34,1398.11333 659.18,1397.7 C660.02,1397.28667 660.986667,1397.08 662.08,1397.08 C662.933333,1397.08 663.686667,1397.18667 664.34,1397.4 C664.993333,1397.61333 665.546667,1398.00667 666,1398.58 C666.453333,1399.15333 666.8,1399.96 667.04,1401 C667.28,1402.04 667.4,1403.37333 667.4,1405 C667.4,1406.68 667.28,1408.06 667.04,1409.14 C666.8,1410.22 666.446667,1411.06667 665.98,1411.68 C665.513333,1412.29333 664.953333,1412.71333 664.3,1412.94 C663.646667,1413.16667 662.92,1413.28 662.12,1413.28 Z M686.6,1417.44 C689.933333,1417.44 692.4,1416.7 694,1415.22 C695.6,1413.74 696.4,1411.58667 696.4,1408.76 L696.4,1408.76 L696.4,1392.92 L691.32,1392.92 L691.32,1408.64 C691.32,1411.44 689.76,1412.84 686.64,1412.84 C683.493333,1412.84 681.92,1411.44 681.92,1408.64 L681.92,1408.64 L681.92,1392.92 L676.84,1392.92 L676.84,1408.76 C676.84,1411.53333 677.633333,1413.67333 679.22,1415.18 C680.806667,1416.68667 683.266667,1417.44 686.6,1417.44 Z M709.8,1417.4 C710.546667,1417.4 711.26,1417.34 711.94,1417.22 C712.62,1417.1 713.16,1416.94667 713.56,1416.76 L713.56,1416.76 L713.24,1412.96 C713.026667,1413.04 712.726667,1413.10667 712.34,1413.16 C711.953333,1413.21333 711.6,1413.24 711.28,1413.24 C710.266667,1413.24 709.486667,1413.00667 708.94,1412.54 C708.393333,1412.07333 708.12,1411.30667 708.12,1410.24 L708.12,1410.24 L708.12,1396.84 L713.76,1396.84 L713.76,1392.92 L708.12,1392.92 L708.12,1386.88 L704.12,1387.28 L703.2,1392.92 L700.04,1392.92 L700.04,1396.84 L703.04,1396.84 L703.04,1410.36 C703.04,1412.6 703.6,1414.33333 704.72,1415.56 C705.84,1416.78667 707.533333,1417.4 709.8,1417.4 Z M723.48,1417 L723.48,1385.4 L718.36,1385.68 L718.36,1417 L723.48,1417 Z M740.28,1417.44 C741.8,1417.44 743.206667,1417.29333 744.5,1417 C745.793333,1416.70667 746.946667,1416.30667 747.96,1415.8 L747.96,1415.8 L747.36,1411.6 C746.346667,1412.05333 745.313333,1412.38667 744.26,1412.6 C743.206667,1412.81333 742.08,1412.92 740.88,1412.92 C739.733333,1412.92 738.733333,1412.8 737.88,1412.56 C737.026667,1412.32 736.32,1411.93333 735.76,1411.4 C735.2,1410.86667 734.766667,1410.16667 734.46,1409.3 C734.153333,1408.43333 733.973333,1407.37333 733.92,1406.12 L733.92,1406.12 L748.56,1406.12 C748.613333,1405.74667 748.646667,1405.34 748.66,1404.9 C748.673333,1404.46 748.68,1404.05333 748.68,1403.68 C748.68,1401.76 748.453333,1400.1 748,1398.7 C747.546667,1397.3 746.893333,1396.14 746.04,1395.22 C745.186667,1394.3 744.16,1393.62 742.96,1393.18 C741.76,1392.74 740.426667,1392.52 738.96,1392.52 C735.466667,1392.52 732.873333,1393.56 731.18,1395.64 C729.486667,1397.72 728.64,1400.68 728.64,1404.52 C728.64,1408.84 729.566667,1412.07333 731.42,1414.22 C733.273333,1416.36667 736.226667,1417.44 740.28,1417.44 Z M744,1402.68 L733.8,1402.68 C733.933333,1400.62667 734.393333,1399.14 735.18,1398.22 C735.966667,1397.3 737.24,1396.84 739,1396.84 C740.52,1396.84 741.72,1397.28 742.6,1398.16 C743.48,1399.04 743.946667,1400.54667 744,1402.68 L744,1402.68 Z M758.24,1417 L758.24,1404.88 C758.24,1403.76 758.4,1402.74667 758.72,1401.84 C759.04,1400.93333 759.473333,1400.17333 760.02,1399.56 C760.566667,1398.94667 761.213333,1398.47333 761.96,1398.14 C762.706667,1397.80667 763.52,1397.64 764.4,1397.64 C764.853333,1397.64 765.293333,1397.67333 765.72,1397.74 C766.146667,1397.80667 766.546667,1397.90667 766.92,1398.04 L766.92,1398.04 L767.24,1392.88 C766.546667,1392.66667 765.706667,1392.56 764.72,1392.56 C763.226667,1392.56 761.886667,1392.96667 760.7,1393.78 C759.513333,1394.59333 758.546667,1395.78667 757.8,1397.36 L757.8,1397.36 L757.68,1397.36 L757.24,1392.84 L753.16,1393.08 L753.16,1417 L758.24,1417 Z" id="OCR-Dbutler"></path>
        </g>
    </g>
</svg>